<?xml version="1.0" encoding="UTF-8"?>
<svg id="Layer_1" xmlns="http://www.w3.org/2000/svg" version="1.1" viewBox="0 0 361.57 138.67">
  <!-- Generator: Adobe Illustrator 30.8.1, SVG Export Plug-In . SVG Version: 2.1.4 Build 1)  -->
  <defs>
    <style>
      .st0 {
        fill: #50a9de;
      }

      .st1 {
        fill: #32764f;
      }

      .st2 {
        fill: #231f20;
      }

      .st3 {
        fill: #e62258;
      }
    </style>
  </defs>
  <g>
    <path class="st3" d="M77.76,138.42c-4.97,0-10-.65-14.97-1.94-10.5-2.74-20.28-8.24-28.3-15.92-18.59-17.79-24.96-43.75-17.47-71.22l.02-.07C25.14,25.96,40.25,11.25,61.95,5.55c15.01-3.94,29.75-2.56,39.47-.71,10.57,2.01,19.48,5.46,22.08,7.68,9.13,5.58,14.96,14.72,17.34,27.17,1.79,9.41,1.67,20.5-.39,33.9v.04c-6.21,32.64-22.47,54.72-45.78,62.18-5.43,1.74-11.13,2.61-16.9,2.61ZM19.01,49.92c-7.26,26.7-1.1,51.9,16.92,69.14,16.11,15.42,38.38,21.08,58.1,14.77,22.55-7.22,38.31-28.73,44.37-60.58,4.59-29.9-.81-49.75-16.05-59.01l-.15-.11c-3.84-3.39-32.38-13.75-59.73-6.58-20.98,5.5-35.61,19.76-43.46,42.36Z"/>
    <path class="st1" d="M72.58,138.67c-4.92,0-9.84-.61-14.67-1.82-12.13-3.05-23.32-9.95-32.37-19.93C12.08,102.66-1.48,85.27.13,64.6,2.25,42.4,21.14,27.54,35.16,18.3c12.34-7.83,24.81-12.15,37.08-12.83,11.16-.62,22.08,1.9,31.57,7.29,9.97,5.66,18.25,14.31,23.94,25.03,5.76,10.84,8.62,23.33,8.27,36.12v.04c-.97,14.95-5.79,28.61-13.93,39.51-7.6,10.17-17.82,17.71-29.58,21.81-6.48,2.26-13.21,3.39-19.94,3.39ZM75.64,7.39c-12.72,0-26.11,4.24-39.36,12.65C22.63,29.04,4.23,43.48,2.19,64.77c-1.55,19.86,11.7,36.79,24.87,50.74,17.16,18.94,41.97,25.76,64.78,17.81,24.14-8.42,40.28-31.21,42.12-59.48.69-25.26-11.25-47.98-31.16-59.28-8.45-4.79-17.61-7.18-27.15-7.18Z"/>
    <path class="st0" d="M75.03,133.43c-15.72,0-27.7-2.43-37.36-7.53-12.28-6.49-20.7-17.41-25.74-33.38-6.49-18.38-7.07-34.18-1.78-48.26,4.82-12.83,14.48-24.02,29.53-34.2C57.62-1.67,77.61-3.19,95.97,5.75c22.43,10.91,38.46,35.63,40.84,62.97,2.23,22.45-1.36,38.56-10.97,49.23-9.2,10.22-23.88,15.25-44.86,15.37-2.04.07-4.03.11-5.96.11ZM71.7,2.08c-10.5,0-21.01,3.25-30.88,9.69C10.43,32.34,1.87,57.79,13.89,91.86c9.13,28.97,29.19,40.74,67.05,39.39,20.4-.12,34.57-4.92,43.36-14.68,9.2-10.22,12.62-25.81,10.45-47.65h0c-2.32-26.64-17.9-50.7-39.69-61.3-7.59-3.69-15.47-5.53-23.37-5.53Z"/>
  </g>
  <g>
    <path class="st2" d="M161.99,5.84h13.37c3.33,0,6.38.58,9.18,1.73,2.79,1.15,5.2,2.73,7.24,4.74,2.03,2.01,3.61,4.39,4.74,7.15,1.13,2.75,1.69,5.73,1.69,8.93s-.56,6.24-1.69,8.99c-1.13,2.75-2.71,5.13-4.74,7.15-2.03,2.01-4.45,3.59-7.24,4.74-2.79,1.15-5.85,1.73-9.18,1.73h-13.37V5.84ZM169.26,44.53h5.36c4.6,0,8.45-1.48,11.55-4.44,3.1-2.96,4.65-6.86,4.65-11.7s-1.53-8.63-4.59-11.61c-3.06-2.98-6.89-4.47-11.49-4.47h-5.48v32.22Z"/>
    <path class="st2" d="M232.09,44.53v6.47h-26.06V5.84h25.13v6.47h-17.93v12.44h16.82v6.47h-16.82v13.31h18.85Z"/>
    <path class="st2" d="M275.46,51h-9.3l-18.42-21.31v21.31h-7.21V5.84h7.21v19.28l17.49-19.28h8.69l-19.53,21.25,21.07,23.9Z"/>
    <path class="st2" d="M315.13,51h-9.3l-18.42-21.31v21.31h-7.21V5.84h7.21v19.28l17.49-19.28h8.69l-19.53,21.25,21.07,23.9Z"/>
    <path class="st2" d="M338.11,4.92c3.24,0,6.29.62,9.15,1.85,2.85,1.23,5.34,2.9,7.45,5.02,2.11,2.12,3.79,4.6,5.02,7.45,1.23,2.85,1.85,5.9,1.85,9.15s-.62,6.3-1.85,9.18c-1.23,2.88-2.91,5.37-5.02,7.48-2.12,2.12-4.6,3.79-7.45,5.02-2.85,1.23-5.9,1.85-9.15,1.85s-6.29-.62-9.15-1.85c-2.85-1.23-5.34-2.9-7.45-5.02-2.12-2.11-3.79-4.61-5.02-7.48-1.23-2.87-1.85-5.93-1.85-9.18s.62-6.29,1.85-9.15c1.23-2.85,2.9-5.34,5.02-7.45,2.11-2.12,4.6-3.79,7.45-5.02,2.85-1.23,5.9-1.85,9.15-1.85ZM321.84,28.39c0,2.38.42,4.61,1.26,6.68.84,2.07,2,3.88,3.48,5.42,1.48,1.54,3.2,2.75,5.17,3.64s4.09,1.32,6.35,1.32,4.37-.44,6.34-1.32c1.97-.88,3.69-2.1,5.14-3.64,1.46-1.54,2.61-3.35,3.45-5.42.84-2.07,1.26-4.3,1.26-6.68s-.42-4.55-1.26-6.62c-.84-2.07-1.99-3.88-3.45-5.42-1.46-1.54-3.17-2.75-5.14-3.64-1.97-.88-4.09-1.32-6.34-1.32s-4.37.44-6.35,1.32c-1.97.88-3.7,2.1-5.17,3.64-1.48,1.54-2.64,3.35-3.48,5.42-.84,2.07-1.26,4.28-1.26,6.62Z"/>
  </g>
  <g>
    <path class="st2" d="M169.19,62.52v45.09h-7.2v-45.09h7.2Z"/>
    <path class="st2" d="M182.11,98.02c.82,1.31,2.02,2.32,3.6,3.01,1.58.7,3.31,1.05,5.2,1.05,2.46,0,4.45-.6,5.97-1.81s2.28-2.9,2.28-5.08-.76-3.72-2.28-4.77c-1.52-1.05-3.61-2.04-6.27-2.98-3.65-1.31-6.73-2.89-9.23-4.74-2.5-1.85-3.75-4.68-3.75-8.49s1.37-7.09,4.12-9.32c2.75-2.23,6.23-3.35,10.46-3.35,2.46,0,4.93.48,7.41,1.45,2.48.96,4.6,2.78,6.37,5.44l-6.03,3.14c-1.56-2.34-4.06-3.51-7.5-3.51-2.17,0-3.97.52-5.38,1.57-1.42,1.05-2.12,2.51-2.12,4.4,0,2.01.82,3.63,2.46,4.86,1.64,1.23,3.88,2.28,6.71,3.14,3.48,1.11,6.4,2.55,8.74,4.34,2.34,1.78,3.51,4.64,3.51,8.58,0,4.39-1.46,7.75-4.37,10.09-2.91,2.34-6.66,3.51-11.26,3.51-6.52,0-11.36-2.34-14.52-7.01l5.91-3.51Z"/>
    <path class="st2" d="M221.48,87.68v19.93h-7.2v-45.09h7.2v18.95h20.49v-18.95h7.2v45.09h-7.2v-19.93h-20.49Z"/>
    <path class="st2" d="M280.17,61.6c3.24,0,6.28.62,9.14,1.85,2.85,1.23,5.33,2.9,7.44,5.01,2.11,2.11,3.78,4.59,5.01,7.44,1.23,2.85,1.85,5.9,1.85,9.13s-.62,6.3-1.85,9.17c-1.23,2.87-2.9,5.36-5.01,7.47-2.11,2.11-4.59,3.78-7.44,5.01-2.85,1.23-5.9,1.85-9.14,1.85s-6.29-.62-9.14-1.85c-2.85-1.23-5.33-2.9-7.44-5.01-2.11-2.11-3.78-4.6-5.01-7.47-1.23-2.87-1.85-5.92-1.85-9.17s.62-6.28,1.85-9.13c1.23-2.85,2.9-5.33,5.01-7.44,2.11-2.11,4.59-3.78,7.44-5.01,2.85-1.23,5.9-1.85,9.14-1.85ZM263.93,85.04c0,2.38.42,4.61,1.26,6.68.84,2.07,2,3.88,3.48,5.41,1.48,1.54,3.2,2.75,5.17,3.63s4.08,1.32,6.34,1.32,4.37-.44,6.34-1.32,3.68-2.09,5.14-3.63c1.45-1.54,2.6-3.34,3.44-5.41.84-2.07,1.26-4.3,1.26-6.68s-.42-4.54-1.26-6.61c-.84-2.07-1.99-3.88-3.44-5.41-1.46-1.54-3.17-2.75-5.14-3.63-1.97-.88-4.08-1.32-6.34-1.32s-4.37.44-6.34,1.32c-1.97.88-3.69,2.09-5.17,3.63-1.48,1.54-2.64,3.34-3.48,5.41-.84,2.07-1.26,4.28-1.26,6.61Z"/>
  </g>
  <g>
    <path class="st2" d="M168.11,118.25c.45.02.9.08,1.35.18,1.97.44,3.69,1.31,5.06,2.81.18.2.18.2-.05.33-.67.39-1.35.77-2.01,1.17-.33.19-.32.2-.6-.07-1.01-.97-2.22-1.53-3.6-1.73-1.86-.26-3.58.1-5.07,1.27-1.52,1.19-2.4,2.76-2.61,4.69-.14,1.3-.04,2.58.48,3.79.98,2.25,2.71,3.6,5.14,4,2.09.35,4.01-.11,5.74-1.33.66-.46.66-.46.66-1.26,0-1.08,0-2.16,0-3.23,0-.28-.01-.28-.29-.28-1.6,0-3.21,0-4.81,0-.3,0-.3,0-.3-.31,0-.67,0-1.34,0-2.01,0-.19.05-.26.25-.26,2.61,0,5.23,0,7.84,0,.26,0,.28.03.28.28,0,2.47,0,4.93,0,7.4,0,.21-.07.37-.22.53-1.65,1.73-3.7,2.72-6.04,3.12-.65.11-1.3.19-1.95.19-1.6,0-3.14-.32-4.58-1.01-2.08-.99-3.58-2.56-4.5-4.67-.48-1.1-.74-2.25-.79-3.45-.14-3.14.98-5.78,3.31-7.88,1.33-1.2,2.94-1.88,4.71-2.17.24-.04.48-.06.78-.1h1.81Z"/>
    <path class="st2" d="M203.93,118.23c2.91.21,5.3,1.35,7.09,3.63,1.77,2.27,2.47,4.83,1.95,7.66-.94,5.06-5.22,8.06-9.67,7.96-5.22-.11-8.77-3.85-9.44-8.23-.42-2.74.28-5.21,1.98-7.39,1.71-2.18,3.99-3.37,6.81-3.62l1.29-.03ZM210.06,127.79c.04-.82-.11-1.67-.42-2.49-.68-1.82-1.93-3.11-3.7-3.9-.86-.38-1.78-.49-2.72-.48-1.77.02-3.26.7-4.47,1.94-1.82,1.86-2.31,4.13-1.83,6.61.32,1.64,1.22,2.96,2.57,3.98,1.39,1.06,2.97,1.5,4.69,1.3,2.11-.25,3.72-1.37,4.86-3.14.74-1.14,1.06-2.41,1.02-3.82Z"/>
    <path class="st2" d="M179.39,127.84c0-3,0-5.99,0-8.99,0-.25.01-.27.26-.27,2.19,0,4.38-.02,6.57,0,1.46.02,2.74.52,3.76,1.58.83.86,1.32,1.89,1.43,3.08.18,1.96-.58,3.5-2.13,4.68-.32.24-.67.42-1.04.56-.16.06-.19.13-.11.28,1.32,2.65,2.64,5.29,3.96,7.94.04.07.07.15.11.22.07.13.02.18-.11.18,0,0-.01,0-.02,0-.89,0-1.77,0-2.66,0-.12,0-.2-.05-.25-.16-.62-1.28-1.24-2.55-1.86-3.82-.64-1.31-1.28-2.62-1.92-3.93-.08-.16-.17-.23-.36-.22-.77.01-1.54,0-2.31,0-.27,0-.28,0-.29.28,0,.25,0,.5,0,.75,0,2.28,0,4.55,0,6.83,0,.27,0,.27-.27.28-.83,0-1.65,0-2.48,0-.21,0-.27-.07-.27-.27,0-3,0-6.01,0-9.01ZM182.42,123.57c0,.87-.03,1.75,0,2.62,0,.2.07.25.26.25.96,0,1.92,0,2.89,0,.18,0,.35,0,.53-.04,1.71-.33,2.77-1.98,2.04-3.71-.43-1-1.3-1.52-2.4-1.55-1.04-.03-2.07,0-3.11,0-.16,0-.21.06-.21.22,0,.74,0,1.48,0,2.22Z"/>
    <path class="st2" d="M219.08,125.02c0,2.03,0,4.05,0,6.08,0,.66.16,1.3.52,1.86.61.98,1.5,1.59,2.65,1.77,1.71.27,3.06-.35,4.03-1.77.33-.49.46-1.05.51-1.63.04-.41.04-.83.04-1.24,0-3.72,0-7.44,0-11.16q0-.33.32-.33c.81,0,1.62,0,2.44,0,.2,0,.26.07.25.26,0,3.93,0,7.86,0,11.79,0,1.05-.16,2.08-.61,3.04-.86,1.81-2.3,2.97-4.22,3.52-2.18.62-4.25.32-6.15-.92-1.56-1.02-2.41-2.51-2.71-4.32-.1-.58-.13-1.16-.13-1.74,0-3.76,0-7.52,0-11.28q0-.35.34-.35c.81,0,1.62,0,2.44,0,.25,0,.26.01.26.27,0,2.05,0,4.11,0,6.16,0,0,0,0,.01,0Z"/>
    <path class="st2" d="M233.84,127.84c0-3,0-5.99,0-8.99,0-.25.01-.27.27-.27,2.18,0,4.35-.01,6.53,0,2.67.02,4.88,1.93,5.2,4.57.4,3.33-2.06,5.56-4.51,5.85-.28.03-.57.06-.86.05-1.08,0-2.17,0-3.25,0-.4,0-.37-.04-.37.35,0,2.46,0,4.92,0,7.38q0,.31-.32.32c-.8,0-1.6,0-2.39,0-.3,0-.3,0-.3-.29,0-3,0-5.99,0-8.99ZM236.85,123.83c0,.83,0,1.65,0,2.48,0,.2.07.25.26.25.93,0,1.87,0,2.8,0,.22,0,.44-.01.65-.05,1.29-.24,2.51-1.44,2.23-3.2-.14-.85-1.14-2.04-2.23-2.13-.24-.02-.49-.04-.73-.04-.91,0-1.83,0-2.74,0-.2,0-.24.07-.24.25,0,.82,0,1.64,0,2.46Z"/>
  </g>
</svg>